Coordinates
version=1
nRows=26
nColumns=24
inDegrees=yes

Units are S.I. units (second, meters, Newtons, ...)
Angles are in degrees.

endheader
time	pelvis_tilt	pelvis_list	pelvis_rotation	pelvis_tx	pelvis_ty	pelvis_tz	hip_flexion_r	hip_adduction_r	hip_rotation_r	knee_angle_r	ankle_angle_r	subtalar_angle_r	mtp_angle_r	hip_flexion_l	hip_adduction_l	hip_rotation_l	knee_angle_l	ankle_angle_l	subtalar_angle_l	mtp_angle_l	lumbar_extension	lumbar_bending	lumbar_rotation
      1.38750000	      2.24433010	      3.32660690	     -1.07075215	      0.15735970	      1.02962148	      0.29110081	     15.39230438	     -7.07376584	     -9.49014097	    -70.93166542	    -14.77077084	     -9.24285577	      1.85098916	      7.84044025	      8.54450128	      2.64570594	    -13.98861144	      4.16402927	    -12.23106886	     -0.24290269	     -4.88093076	     -5.02812487	      4.05654311
      1.39166667	      2.30682997	      3.17774802	     -1.10686941	      0.16221378	      1.03051095	      0.29090659	     15.93767529	     -6.88871167	     -9.37398492	    -70.85677983	    -13.54346264	     -8.98382259	      1.87951899	      7.36070343	      8.40205661	      2.68791649	    -13.78268751	      4.30243132	    -12.21073089	     -0.26391264	     -5.01819723	     -4.82788525	      4.00166906
      1.39583333	      2.34846993	      3.02897840	     -1.12651417	      0.16702572	      1.03132329	      0.29069217	     16.49607056	     -6.70452629	     -9.27609353	    -70.73466733	    -12.35834147	     -8.74510021	      1.91117402	      6.91570461	      8.26115176	      2.73715300	    -13.59822657	      4.42971093	    -12.20597521	     -0.28360669	     -5.15876166	     -4.62719392	      3.94642973
      1.40000000	      2.41593434	      2.88667204	     -1.15140832	      0.17190286	      1.03218306	      0.29048305	     17.00215697	     -6.52647490	     -9.17763243	    -70.54042232	    -11.22544068	     -8.47567016	      1.94200016	      6.41287197	      8.12833834	      2.79814504	    -13.35687731	      4.56224189	    -12.19506980	     -0.30851147	     -5.27823439	     -4.43520200	      3.87176387
      1.40416667	      2.47755511	      2.74731067	     -1.16053438	      0.17673441	      1.03299040	      0.29025532	     17.50434738	     -6.35370940	     -9.09754217	    -70.29859455	    -10.14495626	     -8.22759178	      1.97121201	      5.92657001	      7.99995127	      2.86641324	    -13.13194582	      4.68201623	    -12.19855329	     -0.33773038	     -5.41878467	     -4.24920915	      3.79326716
      1.40833333	      2.52107098	      2.59761870	     -1.15014977	      0.18154403	      1.03374471	      0.29000889	     18.00782654	     -6.17032203	     -9.04152455	    -69.99630909	     -9.14027204	     -8.02638813	      1.99809663	      5.46822566	      7.86037858	      2.94545227	    -12.92403294	      4.79625027	    -12.20590882	     -0.36408691	     -5.56051449	     -4.04923025	      3.71755135
      1.41250000	      2.61160422	      2.47195127	     -1.14546008	      0.18639268	      1.03454691	      0.28975744	     18.44256572	     -6.01954793	     -8.98612195	    -69.63859182	     -8.18490706	     -7.79939946	      2.02094784	      4.93212287	      7.74844202	      3.02840105	    -12.65910133	      4.90797805	    -12.21371979	     -0.39994941	     -5.70968143	     -3.87567079	      3.61629162
      1.41666667	      2.67124995	      2.32026727	     -1.10969494	      0.19119655	      1.03528276	      0.28947806	     18.88854329	     -5.84003965	     -8.96645769	    -69.21338155	     -7.32017575	     -7.65983771	      2.04056244	      4.45067101	      7.60752456	      3.12377638	    -12.43874399	      5.01452159	    -12.22327450	     -0.42795633	     -5.86637797	     -3.67281803	      3.52997830
      1.42083333	      2.75404916	      2.21004634	     -1.08535356	      0.19603440	      1.03599837	      0.28919658	     19.30103273	     -5.71358569	     -8.93701725	    -68.75256114	     -6.49441754	     -7.46548526	      2.05446934	      3.91892243	      7.51265353	      3.22753361	    -12.16218953	      5.11635265	    -12.23737990	     -0.47078810	     -6.01161936	     -3.51844159	      3.39999251
      1.42500000	      2.81795306	      2.07811431	     -1.03147407	      0.20083548	      1.03667507	      0.28889595	     19.70890836	     -5.56228667	     -8.93846929	    -68.22103809	     -5.74722414	     -7.35819523	      2.06498377	      3.42405331	      7.39222367	      3.34066034	    -11.91771166	      5.21510630	    -12.25102892	     -0.50695857	     -6.16366866	     -3.33477570	      3.29235107
      1.42916667	      2.92442108	      1.96827839	     -0.98118990	      0.20566022	      1.03737049	      0.28859113	     20.05462668	     -5.44247283	     -8.94549547	    -67.64158044	     -5.05870276	     -7.24960253	      2.06885982	      2.86495728	      7.29587472	      3.45572581	    -11.63419545	      5.30791706	    -12.26589168	     -0.55303599	     -6.34507135	     -3.17997279	      3.15385071
      1.43333333	      2.98620608	      1.85180916	     -0.90778248	      0.21046402	      1.03796543	      0.28826255	     20.42892139	     -5.31522020	     -8.96972063	    -67.00551214	     -4.42447428	     -7.18546251	      2.07014918	      2.36927353	      7.19018738	      3.58383319	    -11.38150445	      5.40289238	    -12.27745854	     -0.59605260	     -6.49047515	     -3.01816075	      3.02102133
      1.43750000	      3.07585213	      1.75174322	     -0.83324757	      0.21527316	      1.03856510	      0.28793399	     20.75521001	     -5.20974585	     -8.99965243	    -66.31668936	     -3.84755657	     -7.14320322	      2.06643543	      1.83327379	      7.10001088	      3.70792992	    -11.10389476	      5.49553647	    -12.28328518	     -0.64366167	     -6.65145226	     -2.86763864	      2.87059872
      1.44166667	      3.12937906	      1.63316504	     -0.73561318	      0.22007042	      1.03908763	      0.28759407	     21.09521728	     -5.08263574	     -9.05101483	    -65.56317381	     -3.32001329	     -7.16432632	      2.06519171	      1.35443816	      6.98502134	      3.82934306	    -10.86508193	      5.59233138	    -12.27393594	     -0.67663779	     -6.78334973	     -2.70949148	      2.75497290
      1.44583333	      3.22961606	      1.54746081	     -0.64305256	      0.22488046	      1.03962051	      0.28723467	     21.37158911	     -4.99989112	     -9.09912492	    -64.77174763	     -2.83245777	     -7.15121676	      2.05612040	      0.80213160	      6.90680607	      3.96575308	    -10.57358189	      5.68904115	    -12.26930679	     -0.72649131	     -6.95799922	     -2.57279905	      2.56579041
      1.45000000	      3.29137561	      1.44973542	     -0.53110313	      0.22967888	      1.04008439	      0.28688137	     21.66240811	     -4.89755782	     -9.16011350	    -63.91151425	     -2.37693098	     -7.20907954	      2.05060235	      0.31153106	      6.81030556	      4.09827950	    -10.32559431	      5.78380831	    -12.25016142	     -0.76183736	     -7.09248725	     -2.43877222	      2.43393861
      1.45416667	      3.37978498	      1.38156071	     -0.42460792	      0.23448504	      1.04052492	      0.28652220	     21.91228794	     -4.83194638	     -9.21526473	    -63.01504761	     -1.96572923	     -7.26685726	      2.02767479	     -0.22775414	      6.74559391	      4.25040016	    -10.03118697	      5.85836871	    -12.25657483	     -0.84025528	     -7.26345089	     -2.32978019	      2.18722721
      1.45833333	      3.44585786	      1.30047673	     -0.30268662	      0.23930064	      1.04092091	      0.28615678	     22.15691823	     -4.75095827	     -9.28446878	    -62.04858717	     -1.60345214	     -7.34022057	      2.01096857	     -0.73221675	      6.66155792	      4.39542030	     -9.76293612	      5.96812162	    -12.22936767	     -0.89909608	     -7.38811660	     -2.20336594	      2.02832070
      1.46250000	      3.50059156	      1.21608104	     -0.16493302	      0.24410379	      1.04127427	      0.28578825	     22.38800528	     -4.66613356	     -9.36802380	    -61.02249883	     -1.24280971	     -7.44834322	      2.00245727	     -1.21276637	      6.56853245	      4.53203934	     -9.51703872	      6.07312831	    -12.18818495	     -0.93503477	     -7.50777221	     -2.07626287	      1.90189183
      1.46666667	      3.58753028	      1.15729981	     -0.04273061	      0.24892286	      1.04161712	      0.28543880	     22.56978019	     -4.60480677	     -9.43212134	    -59.95253211	     -0.94624307	     -7.56735794	      1.98384085	     -1.74918937	      6.50209828	      4.67922741	     -9.22549456	      6.17206434	    -12.15251091	     -0.99581398	     -7.66518304	     -1.97959133	      1.67429034
      1.47083333	      3.62078079	      1.09802422	      0.10286139	      0.25373068	      1.04184718	      0.28506989	     22.78582367	     -4.54603376	     -9.51467179	    -58.83130346	     -0.63476573	     -7.69749676	      1.97241288	     -2.20558516	      6.43100996	      4.82189656	     -8.98019797	      6.27928741	    -12.11138711	     -1.03734532	     -7.75869628	     -1.88052186	      1.52529100
      1.47500000	      3.68413668	      1.05174376	      0.23218505	      0.25855971	      1.04208266	      0.28472679	     22.94870329	     -4.49173603	     -9.57558242	    -57.65386714	     -0.39031701	     -7.85106355	      1.95257120	     -2.71421574	      6.37151332	      4.96639928	     -8.69382453	      6.38009214	    -12.06858108	     -1.09716652	     -7.87984266	     -1.80044695	      1.30675120
      1.47916667	      3.69680938	      1.00616727	      0.38397584	      0.26337525	      1.04220748	      0.28437183	     23.14191603	     -4.44107839	     -9.65171517	    -56.42608005	     -0.11349110	     -8.00023466	      1.94022632	     -3.14581816	      6.30841121	      5.11304583	     -8.45376542	      6.48504893	    -12.01303863	     -1.13516774	     -7.94690267	     -1.71879356	      1.16671934
      1.48333333	      3.70724558	      0.97250633	      0.52787750	      0.26820856	      1.04228618	      0.28403917	     23.31683948	     -4.39687374	     -9.71677423	    -55.14672131	      0.11018089	     -8.16549105	      1.92456618	     -3.58375505	      6.25558522	      5.25509086	     -8.19619858	      6.59304785	    -11.95694162	     -1.17457037	     -8.00605784	     -1.65423754	      0.99276294
      1.48750000	      3.75117934	      0.93129218	      0.67241660	      0.27305639	      1.04239940	      0.28371404	     23.42338724	     -4.34106151	     -9.78660259	    -53.79704184	      0.28530339	     -8.34943625	      1.90285833	     -4.06485355	      6.19068093	      5.39400506	     -7.92629756	      6.70150085	    -11.90278027	     -1.22166532	     -8.10434975	     -1.58047202	      0.79385819
      1.49166667	      3.75079663	      0.91692737	      0.81431847	      0.27790754	      1.04239596	      0.28340501	     23.56407759	     -4.30871413	     -9.84060431	    -52.41265757	      0.45303331	     -8.52825707	      1.87864102	     -4.49456016	      6.15374587	      5.53535088	     -7.66335122	      6.80423384	    -11.84889631	     -1.26956950	     -8.14419776	     -1.53648177	      0.60679546
